<svg xmlns="http://www.w3.org/2000/svg" viewBox="0 0 420 330"><defs><linearGradient id="w" x1="0" y1="0" x2="1" y2="1"><stop stop-color="#eff5ef"/><stop offset="1" stop-color="#d9e3db"/></linearGradient></defs><rect width="420" height="330" fill="url(#w)"/><rect x="34" y="30" width="175" height="128" rx="4" fill="#f8fbf9"/><rect x="48" y="44" width="147" height="100" fill="#d9edf3"/><path d="M121 44v100M48 94h147" stroke="#fff" stroke-width="7"/><rect x="0" y="226" width="420" height="104" fill="#d7c7ad" opacity=".5"/><rect x="72" y="186" width="210" height="74" rx="26" fill="#c7b89f"/><rect x="95" y="168" width="68" height="52" rx="18" fill="#d6c9b5"/><rect x="171" y="168" width="68" height="52" rx="18" fill="#d6c9b5"/><rect x="79" y="247" width="16" height="44" rx="6" fill="#8e806c"/><rect x="258" y="247" width="16" height="44" rx="6" fill="#8e806c"/><ellipse cx="324" cy="266" rx="45" ry="16" fill="#ab9b84"/><rect x="320" y="180" width="9" height="88" fill="#7d705f"/><path d="M324 184c-37-28-42-63-13-83 6 31 19 41 31 58 7-36 26-51 48-48-7 28-26 51-53 70 26-8 47-5 61 12-28 9-47 7-74-9Z" fill="#739c76"/><circle cx="331" cy="97" r="32" fill="#f5e5bb" opacity=".35"/></svg>